# This file uses centimeters as units for non-parametric coordinates.

v 3.500002 6.062177 -0.000000
v -3.499999 6.062179 -0.000000
v -7.000000 0.000001 -0.000000
v -3.500001 -6.062178 0.000000
v 3.500000 -6.062178 0.000000
v 7.000000 0.000000 0.000000
v 3.845493 6.660586 0.951057
v -3.845490 6.660587 0.951057
v -7.690983 0.000001 0.951057
v -3.845492 -6.660586 0.951057
v 3.845491 -6.660587 0.951057
v 7.690983 0.000000 0.951057
v 4.404510 7.628832 0.587785
v -4.404507 7.628834 0.587785
v -8.809017 0.000001 0.587785
v -4.404510 -7.628832 0.587785
v 4.404508 -7.628833 0.587785
v 8.809017 0.000000 0.587785
v 4.404510 7.628832 -0.587785
v -4.404507 7.628834 -0.587785
v -8.809017 0.000001 -0.587785
v -4.404510 -7.628832 -0.587785
v 4.404508 -7.628833 -0.587785
v 8.809017 -0.000000 -0.587785
v 3.845493 6.660586 -0.951057
v -3.845490 6.660587 -0.951057
v -7.690983 0.000001 -0.951057
v -3.845492 -6.660586 -0.951057
v 3.845491 -6.660587 -0.951057
v 7.690983 -0.000000 -0.951057
vt 0.000000 1.000000
vt 0.166667 1.000000
vt 0.333333 1.000000
vt 0.500000 1.000000
vt 0.666667 1.000000
vt 0.833333 1.000000
vt 1.000000 1.000000
vt 0.000000 0.800000
vt 0.166667 0.800000
vt 0.333333 0.800000
vt 0.500000 0.800000
vt 0.666667 0.800000
vt 0.833333 0.800000
vt 1.000000 0.800000
vt 0.000000 0.600000
vt 0.166667 0.600000
vt 0.333333 0.600000
vt 0.500000 0.600000
vt 0.666667 0.600000
vt 0.833333 0.600000
vt 1.000000 0.600000
vt 0.000000 0.400000
vt 0.166667 0.400000
vt 0.333333 0.400000
vt 0.500000 0.400000
vt 0.666667 0.400000
vt 0.833333 0.400000
vt 1.000000 0.400000
vt 0.000000 0.200000
vt 0.166667 0.200000
vt 0.333333 0.200000
vt 0.500000 0.200000
vt 0.666667 0.200000
vt 0.833333 0.200000
vt 1.000000 0.200000
vt 0.000000 0.000000
vt 0.166667 0.000000
vt 0.333333 0.000000
vt 0.500000 0.000000
vt 0.666667 0.000000
vt 0.833333 0.000000
vt 1.000000 0.000000
vn -0.000000 -0.846395 0.532555
vn -0.000000 -0.846395 0.532555
vn -0.000000 -0.846395 0.532555
vn -0.000000 -0.846395 0.532555
vn -0.000000 -0.846395 0.532555
vn -0.000000 -0.846395 0.532555
vn 0.733000 -0.423198 0.532556
vn 0.733000 -0.423198 0.532556
vn 0.733000 -0.423198 0.532556
vn 0.733000 -0.423198 0.532555
vn 0.733000 -0.423198 0.532555
vn 0.733000 -0.423198 0.532555
vn 0.733000 0.423197 0.532555
vn 0.733000 0.423197 0.532555
vn 0.733000 0.423198 0.532555
vn 0.733000 0.423198 0.532555
vn 0.733000 0.423198 0.532555
vn 0.733000 0.423198 0.532555
vn 0.000000 0.846395 0.532555
vn 0.000000 0.846395 0.532555
vn 0.000000 0.846395 0.532555
vn 0.000000 0.846395 0.532555
vn 0.000000 0.846395 0.532555
vn 0.000000 0.846395 0.532555
vn -0.733000 0.423198 0.532555
vn -0.733000 0.423198 0.532555
vn -0.733000 0.423198 0.532555
vn -0.733000 0.423198 0.532556
vn -0.733000 0.423197 0.532556
vn -0.733000 0.423198 0.532556
vn -0.733000 -0.423197 0.532556
vn -0.733000 -0.423197 0.532556
vn -0.733000 -0.423197 0.532556
vn -0.733000 -0.423197 0.532555
vn -0.733000 -0.423197 0.532555
vn -0.733000 -0.423197 0.532555
vn 0.000000 0.351275 0.936272
vn 0.000000 0.351275 0.936272
vn 0.000000 0.351275 0.936272
vn 0.000000 0.351275 0.936272
vn 0.000000 0.351275 0.936272
vn 0.000000 0.351275 0.936272
vn -0.304213 0.175638 0.936272
vn -0.304213 0.175638 0.936272
vn -0.304213 0.175638 0.936272
vn -0.304213 0.175638 0.936272
vn -0.304213 0.175638 0.936272
vn -0.304213 0.175638 0.936272
vn -0.304213 -0.175637 0.936272
vn -0.304213 -0.175637 0.936272
vn -0.304213 -0.175638 0.936272
vn -0.304213 -0.175637 0.936272
vn -0.304213 -0.175637 0.936272
vn -0.304213 -0.175637 0.936272
vn 0.000000 -0.351275 0.936272
vn 0.000000 -0.351275 0.936272
vn 0.000000 -0.351275 0.936272
vn 0.000000 -0.351275 0.936272
vn 0.000000 -0.351275 0.936272
vn 0.000000 -0.351275 0.936272
vn 0.304213 -0.175638 0.936272
vn 0.304213 -0.175638 0.936272
vn 0.304213 -0.175638 0.936272
vn 0.304213 -0.175638 0.936272
vn 0.304213 -0.175638 0.936272
vn 0.304213 -0.175638 0.936272
vn 0.304213 0.175638 0.936272
vn 0.304213 0.175638 0.936272
vn 0.304213 0.175638 0.936272
vn 0.304213 0.175637 0.936272
vn 0.304213 0.175637 0.936272
vn 0.304213 0.175637 0.936272
vn 0.000000 1.000000 -0.000000
vn 0.000000 1.000000 -0.000000
vn 0.000000 1.000000 -0.000000
vn 0.000000 1.000000 -0.000000
vn 0.000000 1.000000 -0.000000
vn 0.000000 1.000000 -0.000000
vn -0.866025 0.500000 -0.000000
vn -0.866025 0.500000 -0.000000
vn -0.866025 0.500000 -0.000000
vn -0.866025 0.500000 -0.000000
vn -0.866025 0.500000 -0.000000
vn -0.866025 0.500000 -0.000000
vn -0.866026 -0.500000 0.000000
vn -0.866026 -0.500000 0.000000
vn -0.866026 -0.500000 0.000000
vn -0.866026 -0.500000 0.000000
vn -0.866026 -0.500000 0.000000
vn -0.866026 -0.500000 0.000000
vn 0.000000 -1.000000 0.000000
vn 0.000000 -1.000000 0.000000
vn 0.000000 -1.000000 0.000000
vn 0.000000 -1.000000 0.000000
vn 0.000000 -1.000000 0.000000
vn 0.000000 -1.000000 0.000000
vn 0.866025 -0.500000 0.000000
vn 0.866025 -0.500000 0.000000
vn 0.866025 -0.500000 0.000000
vn 0.866025 -0.500000 0.000000
vn 0.866025 -0.500000 0.000000
vn 0.866025 -0.500000 0.000000
vn 0.866026 0.500000 -0.000000
vn 0.866025 0.500000 -0.000000
vn 0.866026 0.500000 -0.000000
vn 0.866025 0.500000 -0.000000
vn 0.866026 0.500000 -0.000000
vn 0.866026 0.500000 -0.000000
vn 0.000000 0.351275 -0.936272
vn 0.000000 0.351275 -0.936272
vn 0.000000 0.351275 -0.936272
vn 0.000000 0.351275 -0.936272
vn 0.000000 0.351275 -0.936272
vn 0.000000 0.351275 -0.936272
vn -0.304213 0.175638 -0.936272
vn -0.304213 0.175638 -0.936272
vn -0.304213 0.175638 -0.936272
vn -0.304213 0.175638 -0.936272
vn -0.304213 0.175638 -0.936272
vn -0.304213 0.175638 -0.936272
vn -0.304213 -0.175637 -0.936272
vn -0.304213 -0.175637 -0.936272
vn -0.304213 -0.175637 -0.936272
vn -0.304213 -0.175637 -0.936272
vn -0.304213 -0.175637 -0.936272
vn -0.304213 -0.175637 -0.936272
vn 0.000000 -0.351275 -0.936272
vn 0.000000 -0.351275 -0.936272
vn 0.000000 -0.351275 -0.936272
vn 0.000000 -0.351275 -0.936272
vn 0.000000 -0.351275 -0.936272
vn 0.000000 -0.351275 -0.936272
vn 0.304213 -0.175638 -0.936272
vn 0.304213 -0.175638 -0.936272
vn 0.304213 -0.175638 -0.936272
vn 0.304213 -0.175638 -0.936272
vn 0.304213 -0.175638 -0.936272
vn 0.304213 -0.175638 -0.936272
vn 0.304213 0.175638 -0.936272
vn 0.304213 0.175638 -0.936272
vn 0.304213 0.175638 -0.936272
vn 0.304213 0.175637 -0.936272
vn 0.304213 0.175637 -0.936272
vn 0.304213 0.175637 -0.936272
vn -0.000000 -0.846395 -0.532555
vn -0.000000 -0.846395 -0.532555
vn -0.000000 -0.846395 -0.532555
vn -0.000000 -0.846395 -0.532555
vn -0.000000 -0.846395 -0.532555
vn -0.000000 -0.846395 -0.532555
vn 0.733000 -0.423198 -0.532555
vn 0.733000 -0.423198 -0.532555
vn 0.733000 -0.423198 -0.532555
vn 0.733000 -0.423198 -0.532555
vn 0.733000 -0.423198 -0.532555
vn 0.733000 -0.423198 -0.532555
vn 0.733000 0.423198 -0.532555
vn 0.733000 0.423198 -0.532555
vn 0.733000 0.423198 -0.532555
vn 0.733000 0.423197 -0.532555
vn 0.733000 0.423197 -0.532555
vn 0.733000 0.423197 -0.532555
vn 0.000000 0.846395 -0.532555
vn 0.000000 0.846395 -0.532555
vn 0.000000 0.846395 -0.532555
vn 0.000000 0.846395 -0.532555
vn 0.000000 0.846395 -0.532555
vn 0.000000 0.846395 -0.532555
vn -0.733000 0.423198 -0.532556
vn -0.733000 0.423197 -0.532556
vn -0.733000 0.423198 -0.532556
vn -0.733000 0.423198 -0.532555
vn -0.733000 0.423198 -0.532555
vn -0.733000 0.423198 -0.532555
vn -0.733000 -0.423198 -0.532555
vn -0.733000 -0.423198 -0.532555
vn -0.733000 -0.423198 -0.532555
vn -0.733000 -0.423197 -0.532556
vn -0.733000 -0.423197 -0.532556
vn -0.733000 -0.423197 -0.532556
f 2/2/1 1/1/2 8/9/3
f 8/9/4 1/1/5 7/8/6
f 3/3/7 2/2/8 9/10/9
f 9/10/10 2/2/11 8/9/12
f 4/4/13 3/3/14 10/11/15
f 10/11/16 3/3/17 9/10/18
f 5/5/19 4/4/20 11/12/21
f 11/12/22 4/4/23 10/11/24
f 6/6/25 5/5/26 12/13/27
f 12/13/28 5/5/29 11/12/30
f 1/7/31 6/6/32 7/14/33
f 7/14/34 6/6/35 12/13/36
f 8/9/37 7/8/38 14/16/39
f 14/16/40 7/8/41 13/15/42
f 9/10/43 8/9/44 15/17/45
f 15/17/46 8/9/47 14/16/48
f 10/11/49 9/10/50 16/18/51
f 16/18/52 9/10/53 15/17/54
f 11/12/55 10/11/56 17/19/57
f 17/19/58 10/11/59 16/18/60
f 12/13/61 11/12/62 18/20/63
f 18/20/64 11/12/65 17/19/66
f 7/14/67 12/13/68 13/21/69
f 13/21/70 12/13/71 18/20/72
f 14/16/73 13/15/74 20/23/75
f 20/23/76 13/15/77 19/22/78
f 15/17/79 14/16/80 21/24/81
f 21/24/82 14/16/83 20/23/84
f 16/18/85 15/17/86 22/25/87
f 22/25/88 15/17/89 21/24/90
f 17/19/91 16/18/92 23/26/93
f 23/26/94 16/18/95 22/25/96
f 18/20/97 17/19/98 24/27/99
f 24/27/100 17/19/101 23/26/102
f 13/21/103 18/20/104 19/28/105
f 19/28/106 18/20/107 24/27/108
f 20/23/109 19/22/110 26/30/111
f 26/30/112 19/22/113 25/29/114
f 21/24/115 20/23/116 27/31/117
f 27/31/118 20/23/119 26/30/120
f 22/25/121 21/24/122 28/32/123
f 28/32/124 21/24/125 27/31/126
f 23/26/127 22/25/128 29/33/129
f 29/33/130 22/25/131 28/32/132
f 24/27/133 23/26/134 30/34/135
f 30/34/136 23/26/137 29/33/138
f 19/28/139 24/27/140 25/35/141
f 25/35/142 24/27/143 30/34/144
f 26/30/145 25/29/146 2/37/147
f 2/37/148 25/29/149 1/36/150
f 27/31/151 26/30/152 3/38/153
f 3/38/154 26/30/155 2/37/156
f 28/32/157 27/31/158 4/39/159
f 4/39/160 27/31/161 3/38/162
f 29/33/163 28/32/164 5/40/165
f 5/40/166 28/32/167 4/39/168
f 30/34/169 29/33/170 6/41/171
f 6/41/172 29/33/173 5/40/174
f 25/35/175 30/34/176 1/42/177
f 1/42/178 30/34/179 6/41/180
